<?xml version="1.0" encoding="utf-8"?>
<!-- Generator: Adobe Illustrator 16.0.4, SVG Export Plug-In . SVG Version: 6.00 Build 0)  -->
<!DOCTYPE svg PUBLIC "-//W3C//DTD SVG 1.1//EN" "http://www.w3.org/Graphics/SVG/1.1/DTD/svg11.dtd">
<svg version="1.1" id="Capa_1" xmlns="http://www.w3.org/2000/svg" xmlns:xlink="http://www.w3.org/1999/xlink" x="0px" y="0px"
	 width="16px" height="16px" viewBox="0 0 16 16" enable-background="new 0 0 16 16" xml:space="preserve">
<path d="M8.5,1C4.358,1,1,4.358,1,8.5C1,12.643,4.358,16,8.5,16c4.143,0,7.5-3.357,7.5-7.5C16,4.358,12.643,1,8.5,1z M12.227,11.904
	c-0.197,0.195-0.516,0.195-0.711,0L8.52,9.254l-2.997,2.65c-0.196,0.195-0.515,0.195-0.711,0c-0.196-0.196-0.196-0.516,0-0.711
	l3.345-2.959c0.1-0.1,0.231-0.148,0.362-0.146C8.65,8.085,8.781,8.133,8.881,8.233l3.346,2.958
	C12.423,11.389,12.423,11.707,12.227,11.904z M12.227,8.318c-0.197,0.196-0.516,0.196-0.711,0L8.518,5.667L5.522,8.318
	c-0.196,0.196-0.515,0.196-0.711,0s-0.196-0.515,0-0.711l3.345-2.959c0.1-0.1,0.231-0.148,0.361-0.146
	C8.65,4.499,8.781,4.547,8.881,4.647l3.346,2.959C12.423,7.803,12.423,8.121,12.227,8.318z"/>
</svg>
