<?xml version="1.0" encoding="utf-8"?>
<!-- Generator: Adobe Illustrator 16.0.0, SVG Export Plug-In . SVG Version: 6.00 Build 0)  -->
<!DOCTYPE svg PUBLIC "-//W3C//DTD SVG 1.1//EN" "http://www.w3.org/Graphics/SVG/1.1/DTD/svg11.dtd">
<svg version="1.1" id="Layer_1" xmlns="http://www.w3.org/2000/svg" xmlns:xlink="http://www.w3.org/1999/xlink" x="0px" y="0px"
	 width="100px" height="100px" viewBox="0 0 100 100" enable-background="new 0 0 100 100" xml:space="preserve">
<g>
	<path d="M57.857,67.715c-1.836,1.521-4.19,2.437-6.756,2.437c-0.189,0-0.375-0.019-0.562-0.028
		c-0.074,0.017-0.145,0.045-0.224,0.045H30.438c-0.553,0-1-0.448-1-1s0.447-1,1-1h14.511c-0.756-0.541-1.443-1.17-2.033-1.886
		c-0.002,0-0.003,0.001-0.004,0.001H30.438c-0.553,0-1-0.448-1-1s0.447-1,1-1h11.187c-0.26-0.518-0.486-1.054-0.66-1.615H30.438
		c-0.553,0-1-0.448-1-1s0.447-1,1-1h10.117c-0.039-0.37-0.062-0.744-0.062-1.124c0-0.145,0.016-0.285,0.021-0.429H30.438
		c-0.553,0-1-0.448-1-1s0.447-1,1-1h10.348c0.127-0.542,0.291-1.069,0.499-1.576H30.438c-0.553,0-1-0.448-1-1s0.447-1,1-1h11.929
		c0.388-0.562,0.827-1.085,1.313-1.562H30.438c-0.553,0-1-0.448-1-1s0.447-1,1-1H46.55c1.382-0.66,2.921-1.041,4.552-1.041
		c5.849,0,10.607,4.758,10.607,10.607c0,2.565-0.916,4.92-2.438,6.756l6.657,6.658h2.721V45.356h-42.49v27.603h36.942L57.857,67.715
		z"/>
	<path d="M46.946,92.165c22.091,0,40-17.909,40-40c0-22.092-17.909-40-40-40c-22.092,0-40,17.908-40,40
		C6.946,74.256,24.854,92.165,46.946,92.165z M21.237,37.328c0-0.552,0.447-1,1-1h50.334c0.553,0,1,0.448,1,1v39.657
		c0,0.552-0.447,1-1,1h-1.616l0.58,0.58c0.391,0.391,0.391,1.023,0,1.414c-0.195,0.195-0.451,0.293-0.707,0.293
		s-0.512-0.098-0.707-0.293l-1.994-1.994h-45.89c-0.553,0-1-0.448-1-1V37.328z"/>
	<path d="M51.102,50.938c-0.984,0-1.928,0.174-2.81,0.48c-0.163,0.329-0.495,0.561-0.888,0.561h-0.403
		c-2.683,1.459-4.507,4.304-4.507,7.566c0,4.746,3.861,8.607,8.607,8.607s8.607-3.861,8.607-8.607S55.848,50.938,51.102,50.938z
		 M57.532,60.545c-0.553,0-1-0.448-1-1c0-2.995-2.437-5.431-5.431-5.431c-0.553,0-1-0.448-1-1s0.447-1,1-1
		c4.098,0,7.431,3.333,7.431,7.431C58.532,60.097,58.085,60.545,57.532,60.545z"/>
</g>
</svg>
