<?xml version="1.0" encoding="utf-8"?>
<!-- Generator: Adobe Illustrator 16.0.4, SVG Export Plug-In . SVG Version: 6.00 Build 0)  -->
<!DOCTYPE svg PUBLIC "-//W3C//DTD SVG 1.1//EN" "http://www.w3.org/Graphics/SVG/1.1/DTD/svg11.dtd">
<svg version="1.1" id="Capa_1" xmlns="http://www.w3.org/2000/svg" xmlns:xlink="http://www.w3.org/1999/xlink" x="0px" y="0px"
	 width="16px" height="16px" viewBox="0 0 16 16" enable-background="new 0 0 16 16" xml:space="preserve">
<g>
	<path d="M14,2h-1V1c0-0.552-0.448-1-1-1H2C1.448,0,1,0.448,1,1v12c0,0.552,0.448,1,1,1h1v1c0,0.552,0.448,1,1,1h10
		c0.552,0,1-0.448,1-1V3C15,2.448,14.552,2,14,2z M2,13V1h10v12H2z M14,15H4v-1h8c0.552,0,1-0.448,1-1V3h1V15z"/>
	<path d="M10.5,3h-5C5.224,3,5,3.224,5,3.5S5.224,4,5.5,4h5C10.775,4,11,3.776,11,3.5S10.775,3,10.5,3z"/>
	<path d="M10.5,6h-7C3.224,6,3,6.224,3,6.5S3.224,7,3.5,7h7C10.775,7,11,6.776,11,6.5S10.775,6,10.5,6z"/>
	<path d="M10.5,8h-7C3.224,8,3,8.224,3,8.5C3,8.775,3.224,9,3.5,9h7C10.775,9,11,8.775,11,8.5C11,8.224,10.775,8,10.5,8z"/>
	<path d="M10.5,10h-7C3.224,10,3,10.225,3,10.5S3.224,11,3.5,11h7c0.275,0,0.5-0.225,0.5-0.5S10.775,10,10.5,10z"/>
</g>
</svg>
