<?xml version="1.0" encoding="iso-8859-1"?>
<!-- Generator: Adobe Illustrator 16.0.0, SVG Export Plug-In . SVG Version: 6.00 Build 0)  -->
<!DOCTYPE svg PUBLIC "-//W3C//DTD SVG 1.1//EN" "http://www.w3.org/Graphics/SVG/1.1/DTD/svg11.dtd">
<svg version="1.1" id="Capa_1" xmlns="http://www.w3.org/2000/svg" xmlns:xlink="http://www.w3.org/1999/xlink" x="0px" y="0px"
	 width="28.938px" height="25.005px" viewBox="0 0 28.938 25.005" style="enable-background:new 0 0 28.938 25.005;"
	 xml:space="preserve">
<path style="fill:#000000;" d="M28.859,24.158L14.957,0.279C14.856,0.106,14.67,0,14.468,0c-0.198,0-0.383,0.106-0.481,0.279
	L0.079,24.158c-0.102,0.175-0.106,0.389-0.006,0.565c0.103,0.174,0.287,0.282,0.488,0.282h27.814c0.201,0,0.389-0.108,0.488-0.282
	c0.047-0.088,0.074-0.186,0.074-0.281C28.938,24.343,28.911,24.245,28.859,24.158z M16.369,8.475l-0.462,9.493h-2.389l-0.461-9.493
	H16.369z M14.711,22.828h-0.042c-1.089,0-1.843-0.817-1.843-1.907c0-1.131,0.774-1.907,1.885-1.907s1.846,0.775,1.867,1.907
	C16.579,22.011,15.844,22.828,14.711,22.828z"/>
<g>
</g>
<g>
</g>
<g>
</g>
<g>
</g>
<g>
</g>
<g>
</g>
<g>
</g>
<g>
</g>
<g>
</g>
<g>
</g>
<g>
</g>
<g>
</g>
<g>
</g>
<g>
</g>
<g>
</g>
</svg>
