<?xml version="1.0" encoding="utf-8"?>
<!-- Generator: Adobe Illustrator 16.0.0, SVG Export Plug-In . SVG Version: 6.00 Build 0)  -->
<!DOCTYPE svg PUBLIC "-//W3C//DTD SVG 1.1//EN" "http://www.w3.org/Graphics/SVG/1.1/DTD/svg11.dtd">
<svg version="1.1" id="Layer_1" xmlns="http://www.w3.org/2000/svg" xmlns:xlink="http://www.w3.org/1999/xlink" x="0px" y="0px"
	 width="100px" height="100px" viewBox="0 0 100 100" enable-background="new 0 0 100 100" xml:space="preserve">
<g>
	<path d="M56.385,6.153c-22.092,0-40,17.909-40,40c0,22.092,17.908,40,40,40s40-17.908,40-40
		C96.385,24.063,78.477,6.153,56.385,6.153z M75.67,66.047c0,0.552-0.447,1-1,1H32.197c-0.553,0-1-0.448-1-1V32.583
		c0-0.552,0.447-1,1-1H74.67c0.553,0,1,0.448,1,1V66.047z"/>
	<path d="M35.662,40.164c0.131-0.063,0.274-0.106,0.43-0.106h2.906c0.553,0,1,0.448,1,1s-0.447,1-1,1h-2.906
		c-0.155,0-0.299-0.042-0.43-0.106v1.212c0.131-0.063,0.274-0.106,0.43-0.106h2.906c0.553,0,1,0.448,1,1s-0.447,1-1,1h-2.906
		c-0.155,0-0.299-0.042-0.43-0.106v1.212c0.131-0.063,0.274-0.106,0.43-0.106h2.906c0.553,0,1,0.448,1,1s-0.447,1-1,1h-2.906
		c-0.155,0-0.299-0.042-0.43-0.106v1.212c0.131-0.063,0.274-0.106,0.43-0.106h2.906c0.553,0,1,0.448,1,1s-0.447,1-1,1h-2.906
		c-0.155,0-0.299-0.042-0.43-0.106v1.212c0.131-0.063,0.274-0.106,0.43-0.106h2.906c0.553,0,1,0.448,1,1s-0.447,1-1,1h-2.906
		c-0.155,0-0.299-0.042-0.43-0.106v1.212c0.131-0.063,0.274-0.106,0.43-0.106h2.906c0.553,0,1,0.448,1,1s-0.447,1-1,1h-2.906
		c-0.155,0-0.299-0.042-0.43-0.106v4.152l10.611-9.325c0.231-0.203,0.541-0.29,0.843-0.232l4.198,0.778l10.001-7.37
		c0.279-0.207,0.648-0.254,0.972-0.12l3.558,1.458l1.134-4.414c0.138-0.535,0.685-0.853,1.218-0.72
		c0.535,0.138,0.857,0.683,0.72,1.218l-1.42,5.525c-0.072,0.28-0.262,0.515-0.521,0.645c-0.258,0.13-0.562,0.141-0.827,0.032
		l-4.1-1.68l-9.897,7.294c-0.223,0.164-0.504,0.229-0.775,0.178l-4.147-0.769l-10.116,8.89h8.171
		c-0.133-0.17-0.225-0.374-0.225-0.606v-2.906c0-0.552,0.447-1,1-1s1,0.448,1,1v2.906c0,0.232-0.092,0.437-0.225,0.606h1.449
		c-0.133-0.17-0.225-0.374-0.225-0.606v-2.906c0-0.552,0.447-1,1-1s1,0.448,1,1v2.906c0,0.232-0.092,0.437-0.225,0.606h1.449
		c-0.133-0.17-0.225-0.374-0.225-0.606v-2.906c0-0.552,0.447-1,1-1s1,0.448,1,1v2.906c0,0.232-0.092,0.437-0.225,0.606h1.449
		c-0.133-0.17-0.225-0.374-0.225-0.606v-2.906c0-0.552,0.447-1,1-1s1,0.448,1,1v2.906c0,0.232-0.092,0.437-0.225,0.606h1.449
		c-0.133-0.17-0.225-0.374-0.225-0.606v-2.906c0-0.552,0.447-1,1-1s1,0.448,1,1v2.906c0,0.232-0.092,0.437-0.225,0.606h1.449
		c-0.133-0.17-0.225-0.374-0.225-0.606v-2.906c0-0.552,0.447-1,1-1s1,0.448,1,1v2.906c0,0.232-0.092,0.437-0.225,0.606h9.371V39.514
		H35.662V40.164z"/>
</g>
</svg>
