<?xml version="1.0" encoding="utf-8"?>
<!-- Generator: Adobe Illustrator 16.0.4, SVG Export Plug-In . SVG Version: 6.00 Build 0)  -->
<!DOCTYPE svg PUBLIC "-//W3C//DTD SVG 1.1//EN" "http://www.w3.org/Graphics/SVG/1.1/DTD/svg11.dtd">
<svg version="1.1" id="Capa_1" xmlns="http://www.w3.org/2000/svg" xmlns:xlink="http://www.w3.org/1999/xlink" x="0px" y="0px"
	 width="21.549px" height="26.375px" viewBox="0 0 21.549 26.375" enable-background="new 0 0 21.549 26.375" xml:space="preserve">
<g>
	<path d="M21.549,2.561C21.549,1.146,20.401,0,18.987,0H2.562C1.146,0,0,1.146,0,2.561v2.426c0,1.415,1.146,2.562,2.562,2.562
		h16.425c1.416,0,2.562-1.146,2.562-2.562L21.549,2.561L21.549,2.561z M19.42,5.056L19.42,5.056
		c-0.001,0.236-0.192,0.428-0.43,0.428H2.557c-0.236,0-0.429-0.191-0.429-0.428V2.621c0-0.236,0.192-0.428,0.429-0.428h16.434
		c0.236,0,0.429,0.191,0.429,0.428V5.056z"/>
	<path d="M18.987,18.827H2.562C1.146,18.827,0,19.973,0,21.387v2.43c0,1.414,1.146,2.56,2.562,2.56h16.425
		c1.416,0,2.562-1.146,2.562-2.56v-2.43h-0.001C21.549,19.973,20.403,18.827,18.987,18.827z M19.42,23.816L19.42,23.816
		c-0.001,0.238-0.192,0.43-0.43,0.43H2.557c-0.236,0-0.429-0.191-0.429-0.43v-2.433c0-0.235,0.192-0.429,0.429-0.429h16.434
		c0.236,0,0.429,0.191,0.429,0.429V23.816z"/>
	<path d="M18.987,9.632H2.562C1.146,9.633,0,10.779,0,12.194v2.426c0,1.415,1.146,2.562,2.562,2.562h16.425
		c1.416,0,2.562-1.146,2.562-2.562v-2.426h-0.001C21.549,10.779,20.403,9.632,18.987,9.632z M19.42,14.623L19.42,14.623
		c-0.001,0.236-0.192,0.43-0.43,0.43H2.557c-0.236,0-0.429-0.191-0.429-0.43v-2.432c0-0.237,0.192-0.43,0.429-0.43h16.434
		c0.236,0,0.429,0.192,0.429,0.43V14.623z"/>
</g>
</svg>
