<?xml version="1.0" encoding="iso-8859-1"?>
<!-- Generator: Adobe Illustrator 17.1.0, SVG Export Plug-In . SVG Version: 6.00 Build 0)  -->
<!DOCTYPE svg PUBLIC "-//W3C//DTD SVG 1.1//EN" "http://www.w3.org/Graphics/SVG/1.1/DTD/svg11.dtd">
<svg version="1.1" id="Capa_1" xmlns="http://www.w3.org/2000/svg" xmlns:xlink="http://www.w3.org/1999/xlink" x="0px" y="0px"
	 viewBox="0 0 100 100" style="enable-background:new 0 0 100 100;" xml:space="preserve">
<g>
	<path style="fill:#000100;" d="M92.215,8.333H7.785c-1.817,0-3.29,1.473-3.29,3.289v17.544c0,1.817,1.473,3.289,3.29,3.289h84.43
		c1.817,0,3.29-1.473,3.29-3.289V11.623C95.504,9.806,94.032,8.333,92.215,8.333z"/>
	<path style="fill:#000100;" d="M92.215,37.939H7.785c-1.817,0-3.29,1.473-3.29,3.289v17.544c0,1.817,1.473,3.289,3.29,3.289h84.43
		c1.817,0,3.29-1.473,3.29-3.289V41.228C95.504,39.411,94.032,37.939,92.215,37.939z"/>
	<path style="fill:#000100;" d="M92.215,67.544H7.785c-1.817,0-3.29,1.473-3.29,3.289v17.544c0,1.817,1.473,3.289,3.29,3.289h84.43
		c1.817,0,3.29-1.473,3.29-3.289V70.833C95.504,69.017,94.032,67.544,92.215,67.544z"/>
</g>
</svg>
