<?xml version="1.0" encoding="utf-8"?>
<!-- Generator: Adobe Illustrator 16.0.0, SVG Export Plug-In . SVG Version: 6.00 Build 0)  -->
<!DOCTYPE svg PUBLIC "-//W3C//DTD SVG 1.1//EN" "http://www.w3.org/Graphics/SVG/1.1/DTD/svg11.dtd">
<svg version="1.1" id="Layer_1" xmlns="http://www.w3.org/2000/svg" xmlns:xlink="http://www.w3.org/1999/xlink" x="0px" y="0px"
	 width="512px" height="512px" viewBox="0 0 512 512" enable-background="new 0 0 512 512" xml:space="preserve">
<path d="M305,512"/>
<line x1="305" y1="512" x2="368" y2="512"/>
<path d="M312.969,154.582L448.75,335.598c12.5,12.5,12.5,32.75,0,45.25l-0.188,0.188c1.063,1.063,2.125,2.063,2.875,3.438
	c17.594,32,11.813,72.406-14,98.219c-25.813,25.781-66.188,31.563-98.219,14c-7.719-4.25-10.563-13.938-6.344-21.719
	c4.438-7.719,14-10.594,21.75-6.313c19.594,10.75,44.344,7.219,60.188-8.625c14.688-14.688,18.25-36.938,10.125-55.781
	c-12.531,11.5-31.938,11.375-44.063-0.781l-181.063-135.75c-12.5-12.5-12.5-32.766,0-45.266l67.875-67.875
	C280.219,142.066,300.469,142.082,312.969,154.582z M88,198.504c38.406,25.766,95.25,17.922,134.438-21.297
	C261.656,138.004,269.5,81.16,243.75,42.77L88,198.504z M221.125,20.145c-38.406-25.75-95.25-17.906-134.438,21.297
	C47.469,80.66,39.625,137.488,65.375,175.879L221.125,20.145z"/>
</svg>
