<?xml version="1.0" encoding="utf-8"?>
<!-- Generator: Adobe Illustrator 16.0.0, SVG Export Plug-In . SVG Version: 6.00 Build 0)  -->
<!DOCTYPE svg PUBLIC "-//W3C//DTD SVG 1.1//EN" "http://www.w3.org/Graphics/SVG/1.1/DTD/svg11.dtd">
<svg version="1.1" id="Layer_1" xmlns="http://www.w3.org/2000/svg" xmlns:xlink="http://www.w3.org/1999/xlink" x="0px" y="0px"
	 width="100px" height="100px" viewBox="0 0 100 100" enable-background="new 0 0 100 100" xml:space="preserve">
<g>
	<path d="M49.956,97.782c23.146,0,41.908-18.764,41.908-41.908c0-23.146-18.762-41.91-41.908-41.91
		c-23.145,0-41.908,18.764-41.908,41.91C8.047,79.019,26.811,97.782,49.956,97.782z M25.022,78.871l4.266-4.267L26.83,68.01
		c-0.133-0.357-0.052-0.76,0.21-1.037L49.304,43.43c-0.107-3.582,1.242-7.054,3.773-9.584c2.455-2.455,5.72-3.808,9.192-3.808
		s6.737,1.353,9.192,3.808c2.456,2.455,3.809,5.72,3.808,9.192c0,3.473-1.353,6.737-3.808,9.192
		c-2.447,2.447-5.709,3.796-9.184,3.796c-0.137,0-0.273-0.009-0.41-0.014L38.334,78.268c-0.189,0.179-0.436,0.273-0.687,0.273
		c-0.118,0-0.236-0.021-0.35-0.063l-6.595-2.459l-4.267,4.267c-0.195,0.195-0.451,0.293-0.707,0.293s-0.512-0.098-0.707-0.293
		C24.632,79.895,24.632,79.262,25.022,78.871z"/>
	<path d="M54.491,50.816c1.881,1.881,4.388,3.012,7.057,3.186c3.18,0.201,6.258-0.945,8.5-3.186c2.078-2.078,3.222-4.84,3.222-7.778
		s-1.144-5.7-3.222-7.778c-2.078-2.077-4.84-3.222-7.778-3.222s-5.701,1.145-7.778,3.222c-2.232,2.232-3.393,5.33-3.186,8.499
		C51.48,46.431,52.612,48.937,54.491,50.816z"/>
	<path d="M37.413,76.387l21.891-20.701c-0.043-0.01-0.084-0.023-0.127-0.034C59.088,55.63,59,55.604,58.912,55.58
		c-0.259-0.069-0.516-0.146-0.771-0.23c-0.102-0.034-0.204-0.068-0.305-0.105c-0.261-0.094-0.518-0.196-0.771-0.308
		c-0.073-0.031-0.147-0.06-0.219-0.093c-0.323-0.147-0.64-0.308-0.949-0.48c-0.055-0.031-0.107-0.065-0.162-0.098
		c-0.252-0.146-0.499-0.3-0.74-0.463c-0.09-0.061-0.179-0.124-0.268-0.187c-0.21-0.15-0.417-0.307-0.618-0.47
		c-0.082-0.065-0.164-0.129-0.244-0.196c-0.271-0.229-0.536-0.467-0.789-0.72c-0.252-0.252-0.489-0.516-0.718-0.786
		c-0.069-0.082-0.135-0.167-0.203-0.251c-0.159-0.197-0.313-0.399-0.459-0.605c-0.066-0.093-0.132-0.186-0.196-0.28
		c-0.156-0.232-0.304-0.47-0.444-0.711c-0.037-0.063-0.078-0.126-0.115-0.19c-0.171-0.306-0.329-0.618-0.474-0.936
		c-0.038-0.082-0.07-0.166-0.105-0.249c-0.105-0.243-0.204-0.488-0.294-0.738c-0.04-0.108-0.077-0.218-0.114-0.328
		c-0.081-0.244-0.154-0.491-0.221-0.741c-0.026-0.097-0.055-0.191-0.078-0.289c-0.01-0.041-0.023-0.08-0.033-0.121L28.921,67.895
		l2.306,6.186L37.413,76.387z"/>
</g>
</svg>
