<?xml version="1.0" encoding="utf-8"?>
<!-- Generator: Adobe Illustrator 15.0.0, SVG Export Plug-In . SVG Version: 6.00 Build 0)  -->
<!DOCTYPE svg PUBLIC "-//W3C//DTD SVG 1.1//EN" "http://www.w3.org/Graphics/SVG/1.1/DTD/svg11.dtd">
<svg version="1.1" id="Layer_1" xmlns="http://www.w3.org/2000/svg" xmlns:xlink="http://www.w3.org/1999/xlink" x="0px" y="0px"
	 width="64px" height="64px" viewBox="0 0 64 64" enable-background="new 0 0 64 64" xml:space="preserve">
<g>
	<g>
		<path d="M4,4.275v38.914h10.809l-0.003,16.536L31.38,43.188H60V4.275H4z M20.248,28.068c-2.631,0-4.771-2.141-4.771-4.771
			c0-2.633,2.141-4.774,4.771-4.774c2.632,0,4.772,2.141,4.772,4.774C25.02,25.928,22.879,28.068,20.248,28.068z M32.377,28.068
			c-2.63,0-4.771-2.141-4.771-4.771c0-2.633,2.141-4.774,4.771-4.774c2.631,0,4.771,2.141,4.771,4.774
			C37.148,25.928,35.009,28.068,32.377,28.068z M44.743,28.068c-2.632,0-4.772-2.141-4.772-4.771c0-2.633,2.141-4.774,4.772-4.774
			s4.772,2.141,4.772,4.774C49.516,25.928,47.375,28.068,44.743,28.068z"/>
	</g>
</g>
</svg>
