<?xml version="1.0" encoding="utf-8"?>
<!-- Generator: Adobe Illustrator 16.0.0, SVG Export Plug-In . SVG Version: 6.00 Build 0)  -->
<!DOCTYPE svg PUBLIC "-//W3C//DTD SVG 1.1//EN" "http://www.w3.org/Graphics/SVG/1.1/DTD/svg11.dtd">
<svg version="1.1" id="Layer_1" xmlns="http://www.w3.org/2000/svg" xmlns:xlink="http://www.w3.org/1999/xlink" x="0px" y="0px"
	 width="100px" height="100px" viewBox="0 0 100 100" enable-background="new 0 0 100 100" xml:space="preserve">
<path d="M79.044,22.907c-0.104-1.126-0.995-2.018-2.12-2.122l-21.098-1.935c-0.693-0.063-1.381,0.187-1.873,0.679l-34.059,34.06
	c-0.916,0.916-0.916,2.399,0,3.315l23.029,23.03c0.916,0.916,2.4,0.916,3.316,0l34.061-34.06c0.491-0.491,0.74-1.178,0.678-1.871
	L79.044,22.907z M72.102,32.15c-1.221,1.22-3.199,1.22-4.422,0c-1.221-1.222-1.221-3.202,0-4.423c1.223-1.22,3.201-1.222,4.422,0
	C73.323,28.948,73.323,30.929,72.102,32.15z"/>
</svg>
